<?xml version="1.0" encoding="utf-8"?>
<!-- Svg Vector Icons : http://www.onlinewebfonts.com/icon -->
<!DOCTYPE svg PUBLIC "-//W3C//DTD SVG 1.1//EN" "http://www.w3.org/Graphics/SVG/1.1/DTD/svg11.dtd">
<svg version="1.1" xmlns="http://www.w3.org/2000/svg" xmlns:xlink="http://www.w3.org/1999/xlink" x="0px" y="0px" viewBox="0 0 1000 1000" enable-background="new 0 0 1000 1000" xml:space="preserve">
<metadata> Svg Vector Icons : http://www.onlinewebfonts.com/icon </metadata>
<g><path d="M500,10c-203,0-367.5,164.5-367.5,367.5C132.5,619.8,500,990,500,990s367.5-374.6,367.5-612.5C867.5,174.5,703,10,500,10z M193.8,381.3c0-171.2,137.1-310.1,306.2-310.1c169.1,0,306.2,138.8,306.2,310.1c0,200.4-306.2,516.8-306.2,516.8S193.8,583.8,193.8,381.3z M500,255c-67.7,0-122.5,54.8-122.5,122.5c0,67.6,54.8,122.5,122.5,122.5c67.6,0,122.5-54.9,122.5-122.5C622.5,309.9,567.6,255,500,255z M500,438.8c-33.8,0-61.3-27.4-61.3-61.3c0-33.8,27.4-61.2,61.3-61.2c33.8,0,61.2,27.4,61.2,61.2C561.3,411.3,533.8,438.8,500,438.8z"/></g>
</svg>